<?xml version="1.0" encoding="UTF-8" standalone="no"?>
<!-- Created with Inkscape (http://www.inkscape.org/) -->

<svg
   xmlns:dc="http://purl.org/dc/elements/1.1/"
   xmlns:cc="http://creativecommons.org/ns#"
   xmlns:rdf="http://www.w3.org/1999/02/22-rdf-syntax-ns#"
   xmlns:svg="http://www.w3.org/2000/svg"
   xmlns="http://www.w3.org/2000/svg"
   xmlns:sodipodi="http://sodipodi.sourceforge.net/DTD/sodipodi-0.dtd"
   xmlns:inkscape="http://www.inkscape.org/namespaces/inkscape"
   sodipodi:docname="simulationoverview.svg"
   inkscape:version="0.48.2 r9819"
   version="1.1"
   id="svg2"
   height="562.5"
   width="1226.6208"
   inkscape:export-filename="/home/mhtest/accn-2012/slides/week1-NEURON/src_imgs/simulationoverview.png"
   inkscape:export-xdpi="90"
   inkscape:export-ydpi="90">
  <sodipodi:namedview
     id="base"
     pagecolor="#ffffff"
     bordercolor="#666666"
     borderopacity="1.0"
     inkscape:pageopacity="0.0"
     inkscape:pageshadow="2"
     inkscape:zoom="0.35"
     inkscape:cx="660.70017"
     inkscape:cy="192.35344"
     inkscape:document-units="px"
     inkscape:current-layer="svg2"
     showgrid="false"
     inkscape:window-width="954"
     inkscape:window-height="625"
     inkscape:window-x="136"
     inkscape:window-y="25"
     inkscape:window-maximized="0"
     fit-margin-top="0"
     fit-margin-left="0"
     fit-margin-right="0"
     fit-margin-bottom="0"
     units="in" />
  <defs
     id="defs4">
    <inkscape:path-effect
       is_visible="true"
       id="path-effect4381"
       effect="spiro" />
    <marker
       style="overflow:visible"
       id="Arrow2Lstart"
       refX="0"
       refY="0"
       orient="auto"
       inkscape:stockid="Arrow2Lstart">
      <path
         transform="matrix(1.1,0,0,1.1,1.1,0)"
         d="M 8.7185878,4.0337352 -2.2072895,0.01601326 8.7185884,-4.0017078 c -1.7454984,2.3720609 -1.7354408,5.6174519 -6e-7,8.035443 z"
         style="font-size:12px;fill-rule:evenodd;stroke-width:0.625;stroke-linejoin:round"
         id="path3826"
         inkscape:connector-curvature="0" />
    </marker>
    <marker
       style="overflow:visible"
       id="Arrow2Lstartd"
       refX="0"
       refY="0"
       orient="auto"
       inkscape:stockid="Arrow2Lstartd">
      <path
         transform="matrix(1.1,0,0,1.1,1.1,0)"
         d="M 8.7185878,4.0337352 -2.2072895,0.01601326 8.7185884,-4.0017078 c -1.7454984,2.3720609 -1.7354408,5.6174519 -6e-7,8.035443 z"
         style="font-size:12px;fill:#ff0000;fill-rule:evenodd;stroke:#ff0000;stroke-width:0.625;stroke-linejoin:round"
         id="path4254"
         inkscape:connector-curvature="0" />
    </marker>
    <marker
       style="overflow:visible"
       id="Arrow2Lstartd-9"
       refX="0"
       refY="0"
       orient="auto"
       inkscape:stockid="Arrow2Lstartd">
      <path
         inkscape:connector-curvature="0"
         transform="matrix(1.1,0,0,1.1,1.1,0)"
         d="M 8.7185878,4.0337352 -2.2072895,0.01601326 8.7185884,-4.0017078 c -1.7454984,2.3720609 -1.7354408,5.6174519 -6e-7,8.035443 z"
         style="font-size:12px;fill:#ff0000;fill-rule:evenodd;stroke:#ff0000;stroke-width:0.625;stroke-linejoin:round"
         id="path4254-1" />
    </marker>
    <marker
       style="overflow:visible"
       id="Arrow2Lstartdu"
       refX="0"
       refY="0"
       orient="auto"
       inkscape:stockid="Arrow2Lstartdu">
      <path
         transform="matrix(1.1,0,0,1.1,1.1,0)"
         d="M 8.7185878,4.0337352 -2.2072895,0.01601326 8.7185884,-4.0017078 c -1.7454984,2.3720609 -1.7354408,5.6174519 -6e-7,8.035443 z"
         style="font-size:12px;fill:#5aa02c;fill-rule:evenodd;stroke:#5aa02c;stroke-width:0.625;stroke-linejoin:round"
         id="path4320"
         inkscape:connector-curvature="0" />
    </marker>
    <marker
       style="overflow:visible"
       id="Arrow2Lstartdu-0"
       refX="0"
       refY="0"
       orient="auto"
       inkscape:stockid="Arrow2Lstartdu">
      <path
         transform="matrix(1.1,0,0,1.1,1.1,0)"
         d="M 8.7185878,4.0337352 -2.2072895,0.01601326 8.7185884,-4.0017078 c -1.7454984,2.3720609 -1.7354408,5.6174519 -6e-7,8.035443 z"
         style="font-size:12px;fill:#5aa02c;fill-rule:evenodd;stroke:#5aa02c;stroke-width:0.625;stroke-linejoin:round"
         id="path4320-7"
         inkscape:connector-curvature="0" />
    </marker>
  </defs>
  <metadata
     id="metadata7">
    <rdf:RDF>
      <cc:Work
         rdf:about="">
        <dc:format>image/svg+xml</dc:format>
        <dc:type
           rdf:resource="http://purl.org/dc/dcmitype/StillImage" />
        <dc:title></dc:title>
      </cc:Work>
    </rdf:RDF>
  </metadata>
  <g
     id="layer1"
     inkscape:groupmode="layer"
     inkscape:label="Layer 1"
     transform="translate(235.41264,206.10395)">
    <path
       id="path3006"
       d="m 132.84375,80.9375 c -35.504019,0 -64.28125,28.77723 -64.28125,64.28125 0,35.50402 28.777231,64.28125 64.28125,64.28125 29.92212,0 55.08233,-20.44384 62.25,-48.125 l 283.71875,0 0,-7.0625 268.6875,0 0,-18.1875 -268.6875,0 0,-7.0625 -283.71875,0 c -7.16767,-27.68116 -32.32788,-48.125 -62.25,-48.125 z"
       style="fill:#2ad4ff;stroke:#000000;stroke-width:1.89999998;stroke-miterlimit:4;stroke-opacity:1;stroke-dasharray:none"
       inkscape:connector-curvature="0" />
    <text
       sodipodi:linespacing="125%"
       id="text3797"
       y="-14.358907"
       x="18.182749"
       style="font-size:40px;font-style:normal;font-weight:normal;line-height:125%;letter-spacing:0px;word-spacing:0px;fill:#000000;fill-opacity:1;stroke:none;font-family:Sans"
       xml:space="preserve"><tspan
         y="-14.358907"
         x="18.182749"
         id="tspan3799"
         sodipodi:role="line">Neuron with Soma &amp; Axon</tspan><tspan
         id="tspan3801"
         y="35.641094"
         x="18.182749"
         sodipodi:role="line">(Hodgkin-Huxley channels)</tspan></text>
    <path
       inkscape:connector-curvature="0"
       id="path3803"
       d="M 95.864693,174.54792 17.876255,252.53636"
       style="fill:#ff0000;stroke:#ff0000;stroke-width:2.88507533;stroke-linecap:butt;stroke-linejoin:miter;stroke-miterlimit:4;stroke-opacity:1;stroke-dasharray:none;marker-start:url(#Arrow2Lstartd)" />
    <text
       xml:space="preserve"
       style="font-size:40px;font-style:normal;font-weight:normal;line-height:125%;letter-spacing:0px;word-spacing:0px;fill:#000000;fill-opacity:1;stroke:none;font-family:Sans"
       x="-238.04936"
       y="250.88556"
       id="text4276"
       sodipodi:linespacing="125%"><tspan
         sodipodi:role="line"
         id="tspan4278"
         x="-238.04936"
         y="250.88556">Step current </tspan><tspan
         sodipodi:role="line"
         x="-238.04936"
         y="300.88556"
         id="tspan4284">injection</tspan></text>
    <path
       style="fill:none;stroke:#ff0000;stroke-width:4.75699997;stroke-linecap:butt;stroke-linejoin:miter;stroke-miterlimit:4;stroke-opacity:1;stroke-dasharray:none"
       d="m -226.53748,202.6021 51.80913,0 0,-63.07198 47.30398,0 0,63.07198 162.185068,0"
       id="path4280"
       inkscape:connector-curvature="0"
       sodipodi:nodetypes="cccccc" />
    <path
       inkscape:connector-curvature="0"
       id="path3803-3"
       d="m 152.11703,177.37229 77.98844,77.98844"
       style="fill:#5aa02c;stroke:#5aa02c;stroke-width:2.88507533;stroke-linecap:butt;stroke-linejoin:miter;stroke-miterlimit:4;stroke-opacity:1;stroke-dasharray:none;marker-start:url(#Arrow2Lstartdu)" />
    <path
       inkscape:connector-curvature="0"
       id="path3803-3-3"
       d="m 632.35437,148.67812 77.98844,77.98844"
       style="fill:#5aa02c;stroke:#5aa02c;stroke-width:2.88507533;stroke-linecap:butt;stroke-linejoin:miter;stroke-miterlimit:4;stroke-opacity:1;stroke-dasharray:none;marker-start:url(#Arrow2Lstartdu)" />
  </g>
  <path
     id="path5401"
     title="sin(x)"
     d="m 476.41406,437.01995 c 1.16495,-1.863 2.32988,-3.727 3.49482,-5.521 1.16494,-1.794 2.32988,-3.518 3.49482,-5.109 1.16494,-1.59 2.32988,-3.047 3.49482,-4.316 1.16493,-1.269 2.32987,-2.35 3.49482,-3.202 1.16493,-0.853 2.32987,-1.477 3.49482,-1.849 1.16494,-0.373 2.32987,-0.493 3.49481,-0.358 1.16494,0.135 2.32988,0.527 3.49482,1.16 1.16494,0.633 2.32988,1.507 3.49482,2.591 1.16493,1.083 2.32988,2.375 3.49481,3.829 1.16494,1.453 2.32988,3.067 3.49482,4.781 1.16494,1.715 2.32988,3.53 3.49483,5.378 1.16493,1.848 2.32987,3.729 3.49481,5.572 1.16494,1.844 2.32988,3.651 3.49482,5.353 1.16494,1.702 2.32988,3.299 3.49481,4.732 1.16494,1.434 2.32989,2.703 3.49482,3.761 1.16494,1.058 2.32988,1.904 3.49483,2.508 1.16493,0.603 2.32987,0.963 3.49481,1.067 1.16494,0.105 2.32988,-0.05 3.49482,-0.451 1.16494,-0.403 2.32988,-1.057 3.49481,-1.937 1.16495,-0.88 2.32988,-1.987 3.49482,-3.278 1.16494,-1.292 2.32988,-2.769 3.49482,-4.376 1.16493,-1.606 2.32988,-3.343 3.49482,-5.145 1.16494,-1.803 2.32987,-3.67 3.49482,-5.533"
     style="fill:none;stroke:#5aa02c;stroke-width:2.74600005;stroke-miterlimit:4;stroke-opacity:1;stroke-dasharray:none"
     inkscape:connector-curvature="0"
     sodipodi:nodetypes="cssssssssssssssssssssssc" />
  <text
     xml:space="preserve"
     style="font-size:40px;font-style:normal;font-weight:normal;line-height:125%;letter-spacing:0px;word-spacing:0px;fill:#000000;fill-opacity:1;stroke:none;font-family:Sans"
     x="463.98407"
     y="504.17969"
     id="text5429"
     sodipodi:linespacing="125%"><tspan
       sodipodi:role="line"
       x="463.98407"
       y="504.17969"
       id="tspan5435">Record membrane voltage waveforms</tspan><tspan
       sodipodi:role="line"
       x="463.98407"
       y="554.17969"
       id="tspan5443">at certain points </tspan><tspan
       sodipodi:role="line"
       x="463.98407"
       y="604.17969"
       id="tspan5433" /></text>
  <path
     id="path5401-8"
     title="sin(x)"
     d="m 966.6508,421.32295 c 1.16495,-1.863 2.32988,-3.727 3.49482,-5.521 1.16494,-1.794 2.32988,-3.518 3.49482,-5.109 1.16494,-1.59 2.32988,-3.047 3.49482,-4.316 1.16493,-1.269 2.32987,-2.35 3.49482,-3.202 1.16493,-0.853 2.32987,-1.477 3.49482,-1.849 1.16494,-0.373 2.32987,-0.494 3.49481,-0.358 1.16494,0.135 2.32988,0.527 3.49482,1.16 1.16494,0.633 2.32988,1.507 3.49482,2.591 1.16493,1.083 2.32988,2.375 3.49481,3.829 1.16494,1.453 2.32984,3.067 3.49484,4.781 1.1649,1.715 2.3299,3.53 3.4948,5.378 1.1649,1.848 2.3299,3.729 3.4948,5.572 1.165,1.844 2.3299,3.651 3.4948,5.353 1.165,1.702 2.3299,3.299 3.4949,4.732 1.1649,1.434 2.3298,2.703 3.4948,3.761 1.1649,1.058 2.3299,1.904 3.4948,2.508 1.1649,0.603 2.3299,0.963 3.4948,1.067 1.165,0.105 2.3299,-0.05 3.4948,-0.451 1.165,-0.403 2.3299,-1.057 3.4948,-1.937 1.165,-0.88 2.3299,-1.987 3.4949,-3.278 1.1649,-1.292 2.3298,-2.769 3.4948,-4.376 1.1649,-1.606 2.3299,-3.343 3.4948,-5.145 1.1649,-1.803 2.3299,-3.67 3.4948,-5.533"
     style="fill:none;stroke:#5aa02c;stroke-width:2.74600005;stroke-miterlimit:4;stroke-opacity:1;stroke-dasharray:none"
     inkscape:connector-curvature="0"
     sodipodi:nodetypes="cssssssssssssssssssssssc" />
</svg>
